PathFileType	4	(X/Y/Z)	C:/Users/opensim2020/Desktop/walking_exp_matlab/subject02_walking10_straight_03.trc																																																																																																																															
DataRate	CameraRate	NumFrames	NumMarkers	Units	OrigDataRate	OrigDataStartFrame	OrigNumFrames																																																																																																																											
100	100	5	43	mm	100	2190	270																																																																																																																											
Frame#	Time	LFHD			RFHD			LBHD			RBHD			C7			T10			CLAV			STRN			RBAK			LSHO			LUPA			LELB			LFRM			LWRA			LWRB			LFIN			RSHO			RUPA			RELB			RFRM			RWRA			RWRB			RFIN			LASI			RASI			LPSI			RPSI			LTHI			LKNE			LTIB			LANK			LHEE			LTOE			RTHI			RKNE			RTIB			RANK			RHEE			RTOE			*39			*40			*41			*42		
		X1	Y1	Z1	X2	Y2	Z2	X3	Y3	Z3	X4	Y4	Z4	X5	Y5	Z5	X6	Y6	Z6	X7	Y7	Z7	X8	Y8	Z8	X9	Y9	Z9	X10	Y10	Z10	X11	Y11	Z11	X12	Y12	Z12	X13	Y13	Z13	X14	Y14	Z14	X15	Y15	Z15	X16	Y16	Z16	X17	Y17	Z17	X18	Y18	Z18	X19	Y19	Z19	X20	Y20	Z20	X21	Y21	Z21	X22	Y22	Z22	X23	Y23	Z23	X24	Y24	Z24	X25	Y25	Z25	X26	Y26	Z26	X27	Y27	Z27	X28	Y28	Z28	X29	Y29	Z29	X30	Y30	Z30	X31	Y31	Z31	X32	Y32	Z32	X33	Y33	Z33	X34	Y34	Z34	X35	Y35	Z35	X36	Y36	Z36	X37	Y37	Z37	X38	Y38	Z38	X39	Y39	Z39	X40	Y40	Z40	X41	Y41	Z41	X42	Y42	Z42	X43	Y43	Z43
																																																																																																																																		
1	0	-1030.64941	1729.5498	1357.71619	-1039.62964	1713.90564	1501.0874	-1165.86792	1665.94922	1343.82776	-1187.49915	1649.37512	1485.1748	-1232.80481	1526.37805	1410.10034	-1294.87903	1251.81042	1408.43384	-1096.2467	1455.68774	1408.86401	-1048.56482	1283.06897	1422.7594	-1300.27478	1353.11365	1470.8468	-1149.01343	1499.51013	1235.69495	-1135.66113	1299.95081	1148.19067	-1114.02637	1159.2002	1134.4895	-1070.20117	1033.56946	1129.83813	-990.14038	929.02539	1176.2677	-1028.85327	918.44653	1136.39832	-991.38837	863.31042	1138.11548	-1168.57458	1490.90588	1601.0885	-1195.85901	1300.99487	1686.40674	-1174.18909	1155.53967	1708.61829	-1122.0802	1046.46704	1726.77502	-1046.00916	935.09766	1704.65552	-1090.59631	919.13733	1734.69189	-1038.65076	869.03052	1738.50464	-1057.92566	984.07587	1294.41211	-1082.02039	977.05066	1548.52966	-1272.91101	1030.6394	1354.95239	-1289.42322	1032.37268	1469.48621	-1119.67358	667.45856	1260.76111	-1156.96594	467.75439	1303.12292	-1213.95935	280.34369	1313.05615	-1214.47803	61.61072	1368.97473	-1255.0166	34.83877	1419.00464	-1058.83484	28.29475	1370.49109	-1141.36304	683.14948	1648.13904	-1111.58728	480.02075	1647.15991	-1211.56104	323.88156	1632.12439	-1281.13611	145.52164	1590.83252	-1303.5553	94.80206	1523.84143	-1181.06958	47.23843	1665.48181	-1129.71521	1805.40857	1441.80396	2845.18188	1034.0365	-3360.39209	NaN	NaN	NaN	NaN	NaN	NaN
2	0.01	-1024.57056	1729.77942	1358.11267	-1033.7113	1713.73108	1501.59509	-1159.98926	1666.24536	1344.13416	-1181.63135	1649.24658	1485.47571	-1226.69739	1526.32629	1410.51746	-1288.89502	1251.82813	1409.48779	-1090.224	1455.57446	1408.69775	-1042.76062	1282.86462	1422.0033	-1294.32922	1353.33752	1471.64929	-1143.50488	1499.6239	1235.79065	-1128.2207	1300.41968	1148.18103	-1104.07361	1159.75879	1134.63416	-1057.62512	1035.22253	1130.22546	-975.12451	933.10144	1177.13257	-1013.26538	920.92041	1137.19885	-974.86761	866.77472	1139.49695	-1161.80444	1490.61426	1601.25244	-1189.59741	1300.78821	1686.47168	-1168.2887	1155.40454	1708.87598	-1116.26416	1046.2229	1727.13635	-1040.14014	934.75098	1705.12024	-1084.89172	918.72595	1735.06299	-1032.90405	868.73029	1738.94189	-1053.03357	983.67706	1293.99487	-1074.83191	977.18921	1548.3042	-1267.81323	1030.62268	1356.52148	-1283.15442	1032.34216	1471.16541	-1117.18481	667.38641	1261.04248	-1155.17102	467.78229	1303.58582	-1212.98999	280.59436	1313.56238	-1214.51172	61.7241	1369.36328	-1255.33984	35.46233	1419.2074	-1058.7373	28.19953	1370.39954	-1129.48499	683.77057	1648.51538	-1097.20618	480.71063	1646.67261	-1192.89771	321.31738	1634.37	-1257.65393	140.48306	1595.24194	-1280.14673	88.5899	1529.17041	-1152.76904	46.36072	1668.21545	-1123.7583	1805.35938	1442.45496	2845.13403	1034.14954	-3360.35547	NaN	NaN	NaN	NaN	NaN	NaN
3	0.02	-1018.45142	1729.59753	1358.71545	-1027.76025	1713.3158	1502.32178	-1153.86279	1666.31543	1344.48779	-1175.62622	1649.03625	1485.80481	-1220.66321	1526.3927	1411.07031	-1282.90833	1251.84082	1410.58545	-1084.19861	1455.32336	1408.65662	-1036.5658	1282.65833	1421.6106	-1287.94568	1353.15076	1472.31604	-1137.9292	1499.67639	1235.98181	-1121.60388	1300.89722	1148.04553	-1094.83508	1160.6001	1134.4469	-1045.49805	1036.91077	1130.46716	-960.64807	936.80798	1178.0498	-998.71118	923.63702	1138.24585	-958.64862	870.43097	1140.74536	-1154.96008	1490.23669	1601.48438	-1183.21045	1300.44873	1686.64001	-1162.11768	1154.98364	1709.09912	-1110.34607	1045.75208	1727.30774	-1034.66357	934.18427	1705.43579	-1079.31812	918.26721	1735.31104	-1027.40381	868.28497	1739.48071	-1049.81226	982.78723	1293.24622	-1067.73511	977.22046	1548.08972	-1262.64905	1030.53137	1358.12134	-1276.93213	1032.25305	1472.82458	-1114.23718	666.78265	1261.6062	-1153.10535	467.63599	1304.12048	-1212.05127	280.90497	1314.18262	-1214.3064	61.82614	1369.51807	-1255.21838	35.60548	1419.47534	-1058.43005	28.23633	1370.47473	-1117.87708	684.48645	1649.11389	-1083.1366	481.29724	1646.11035	-1174.19482	318.79727	1636.53003	-1234.07678	135.90529	1599.63318	-1256.4696	82.96482	1534.47278	-1124.22852	45.82439	1670.5741	-1117.90063	1805.44153	1443.23535	2845.74414	1034.26758	-3357.4187	NaN	NaN	NaN	NaN	NaN	NaN
4	0.03	-1012.19696	1729.65393	1359.5376	-1021.68878	1713.17114	1502.88196	-1147.70081	1666.29321	1344.92456	-1169.62183	1648.75378	1486.18921	-1214.34106	1526.0874	1411.50342	-1276.86243	1251.76697	1411.68445	-1078.07446	1455.10535	1408.69751	-1030.29614	1282.39551	1421.31995	-1281.73804	1353.2207	1473.17419	-1132.3042	1499.65662	1236.245	-1113.77466	1300.99182	1148.52051	-1085.13818	1161.23975	1134.2511	-1033.14526	1038.36292	1131.00732	-945.88977	940.79639	1179.42114	-983.82123	926.25525	1139.32666	-943.03125	874.19452	1141.76807	-1148.07397	1489.79346	1601.75842	-1176.75952	1300.17554	1686.90479	-1155.99756	1154.73657	1709.37024	-1104.74658	1045.3606	1727.88367	-1029.13	933.42139	1705.9126	-1073.92993	917.71777	1735.73401	-1022.09265	867.64935	1740.03467	-1044.6261	982.56573	1293.16541	-1060.6698	977.38776	1548.07825	-1257.40967	1030.27722	1359.63318	-1270.67163	1032.00574	1474.43982	-1111.49646	666.62183	1262.03442	-1151.14404	467.62109	1304.67358	-1211.04504	281.21927	1314.75867	-1214.22351	62.00166	1369.79895	-1255.17651	35.77297	1419.74829	-1058.31274	28.1961	1370.41406	-1105.95996	685.17175	1649.06897	-1069.18005	481.73907	1645.34375	-1155.46802	316.26041	1638.62488	-1210.29041	131.44716	1603.86768	-1232.72974	77.45069	1539.71704	-1095.56848	45.61257	1672.50952	-1111.59424	1805.00403	1443.81128	2845.69458	1034.31116	-3357.3064	NaN	NaN	NaN	NaN	NaN	NaN
5	0.04	-1005.86224	1729.78259	1360.41687	-1015.53827	1712.83899	1503.4967	-1141.29871	1666.08655	1345.45093	-1163.4845	1648.401	1486.60144	-1208.12158	1525.87695	1412.09167	-1270.78723	1251.66907	1412.77441	-1071.89551	1454.75195	1408.77185	-1024.59106	1281.92712	1420.8606	-1275.14404	1352.85388	1473.85864	-1126.65491	1499.63733	1236.56079	-1106.86511	1301.31238	1148.58411	-1075.74133	1161.82861	1134.59949	-1021.63721	1040.36292	1131.50098	-932.09589	944.56268	1180.4574	-969.63507	929.16754	1140.28564	-927.37109	877.96265	1143.20361	-1141.17126	1489.40625	1602.17688	-1170.23279	1299.75598	1687.21875	-1150.08118	1154.29993	1709.78699	-1098.8645	1044.68298	1727.97705	-1023.86639	932.77954	1706.49512	-1068.73499	917.04626	1736.15576	-1017.01263	866.89282	1740.67603	-1039.6123	982.50952	1293.06104	-1053.67383	977.4787	1548.15295	-1252.13464	1029.96338	1361.24231	-1264.36938	1031.68958	1475.98438	-1108.65234	666.21606	1262.47034	-1149.08569	467.51331	1305.27539	-1209.94824	281.46075	1315.32971	-1214.15759	62.08851	1370.12695	-1254.99524	35.83801	1420.00085	-1058.18909	28.10946	1370.35266	-1094.52551	685.82843	1649.40735	-1055.6676	482.20847	1644.66211	-1136.76758	313.81747	1640.65283	-1186.16833	126.9402	1607.93701	-1208.18665	71.9048	1544.43201	-1066.97229	45.74484	1674.0155	-1105.68481	1804.95386	1444.7085	2845.84692	1034.27222	-3357.29419	NaN	NaN	NaN	NaN	NaN	NaN
